<mxfile host="app.diagrams.net" modified="2024-07-08T10:45:27.620Z" agent="Mozilla/5.0 (Windows NT 10.0; Win64; x64; rv:126.0) Gecko/20100101 Firefox/126.0" etag="dSiAIpYwl2jRU7wXBq_B" version="24.6.4" type="device">
  <diagram id="C5RBs43oDa-KdzZeNtuy" name="Page-1">
    <mxGraphModel dx="1687" dy="1061" grid="1" gridSize="10" guides="1" tooltips="1" connect="1" arrows="1" fold="1" page="1" pageScale="1" pageWidth="827" pageHeight="1169" math="0" shadow="0">
      <root>
        <mxCell id="WIyWlLk6GJQsqaUBKTNV-0" />
        <mxCell id="WIyWlLk6GJQsqaUBKTNV-1" parent="WIyWlLk6GJQsqaUBKTNV-0" />
        <mxCell id="HSqlkstyHyvW9irIFNGg-0" value="&lt;div&gt;Start&lt;/div&gt;" style="ellipse;whiteSpace=wrap;html=1;" vertex="1" parent="WIyWlLk6GJQsqaUBKTNV-1">
          <mxGeometry x="562" y="70" width="120" height="80" as="geometry" />
        </mxCell>
        <mxCell id="HSqlkstyHyvW9irIFNGg-1" value="Stop" style="ellipse;whiteSpace=wrap;html=1;" vertex="1" parent="WIyWlLk6GJQsqaUBKTNV-1">
          <mxGeometry x="390" y="610" width="120" height="80" as="geometry" />
        </mxCell>
        <mxCell id="HSqlkstyHyvW9irIFNGg-2" value="&lt;div&gt;Inicjalizacja komponentów:&lt;/div&gt;&lt;div align=&quot;left&quot;&gt;&lt;ul&gt;&lt;li&gt;SHT35&lt;/li&gt;&lt;li&gt;SCD41&lt;/li&gt;&lt;li&gt;NPK&lt;/li&gt;&lt;li&gt;AS7341&lt;/li&gt;&lt;li&gt;LEDpanel&lt;/li&gt;&lt;li&gt;Przekaźnik   &lt;/li&gt;&lt;/ul&gt;&lt;/div&gt;" style="rounded=0;whiteSpace=wrap;html=1;" vertex="1" parent="WIyWlLk6GJQsqaUBKTNV-1">
          <mxGeometry x="510" y="170" width="224" height="140" as="geometry" />
        </mxCell>
        <mxCell id="HSqlkstyHyvW9irIFNGg-3" value="Pętla nieskończona programu" style="rounded=0;whiteSpace=wrap;html=1;" vertex="1" parent="WIyWlLk6GJQsqaUBKTNV-1">
          <mxGeometry x="562" y="330" width="120" height="60" as="geometry" />
        </mxCell>
        <mxCell id="HSqlkstyHyvW9irIFNGg-5" value="&lt;div&gt;Czy obecna godzina&amp;nbsp;&lt;/div&gt;&lt;div&gt;znajduje się&amp;nbsp;&lt;/div&gt;&lt;div&gt;w zakresie pracy?&lt;/div&gt;" style="rhombus;whiteSpace=wrap;html=1;" vertex="1" parent="WIyWlLk6GJQsqaUBKTNV-1">
          <mxGeometry x="654.47" y="540" width="180" height="180" as="geometry" />
        </mxCell>
        <mxCell id="HSqlkstyHyvW9irIFNGg-6" value="Wyłączenie oświetlenia" style="rounded=0;whiteSpace=wrap;html=1;" vertex="1" parent="WIyWlLk6GJQsqaUBKTNV-1">
          <mxGeometry x="1072" y="790" width="120" height="60" as="geometry" />
        </mxCell>
        <mxCell id="HSqlkstyHyvW9irIFNGg-7" value="&lt;div&gt;Czy oświetlenie&amp;nbsp;&lt;/div&gt;&lt;div&gt;jest wyłączone?&lt;/div&gt;" style="rhombus;whiteSpace=wrap;html=1;" vertex="1" parent="WIyWlLk6GJQsqaUBKTNV-1">
          <mxGeometry x="904.47" y="670" width="140" height="140" as="geometry" />
        </mxCell>
        <mxCell id="HSqlkstyHyvW9irIFNGg-8" value="" style="endArrow=classic;html=1;rounded=0;exitX=0.5;exitY=1;exitDx=0;exitDy=0;entryX=0.5;entryY=0;entryDx=0;entryDy=0;" edge="1" parent="WIyWlLk6GJQsqaUBKTNV-1" source="HSqlkstyHyvW9irIFNGg-0" target="HSqlkstyHyvW9irIFNGg-2">
          <mxGeometry width="50" height="50" relative="1" as="geometry">
            <mxPoint x="322" y="150" as="sourcePoint" />
            <mxPoint x="372" y="100" as="targetPoint" />
          </mxGeometry>
        </mxCell>
        <mxCell id="HSqlkstyHyvW9irIFNGg-9" value="" style="endArrow=classic;html=1;rounded=0;exitX=0.5;exitY=1;exitDx=0;exitDy=0;entryX=0.5;entryY=0;entryDx=0;entryDy=0;" edge="1" parent="WIyWlLk6GJQsqaUBKTNV-1" source="HSqlkstyHyvW9irIFNGg-2" target="HSqlkstyHyvW9irIFNGg-3">
          <mxGeometry width="50" height="50" relative="1" as="geometry">
            <mxPoint x="342" y="180" as="sourcePoint" />
            <mxPoint x="392" y="130" as="targetPoint" />
          </mxGeometry>
        </mxCell>
        <mxCell id="HSqlkstyHyvW9irIFNGg-12" value="" style="endArrow=classic;html=1;rounded=0;exitX=1;exitY=0.5;exitDx=0;exitDy=0;entryX=0.5;entryY=0;entryDx=0;entryDy=0;" edge="1" parent="WIyWlLk6GJQsqaUBKTNV-1" source="HSqlkstyHyvW9irIFNGg-5" target="HSqlkstyHyvW9irIFNGg-7">
          <mxGeometry width="50" height="50" relative="1" as="geometry">
            <mxPoint x="954.47" y="580" as="sourcePoint" />
            <mxPoint x="974.47" y="670" as="targetPoint" />
            <Array as="points">
              <mxPoint x="974.47" y="630" />
            </Array>
          </mxGeometry>
        </mxCell>
        <mxCell id="HSqlkstyHyvW9irIFNGg-38" value="Nie" style="edgeLabel;html=1;align=center;verticalAlign=middle;resizable=0;points=[];" vertex="1" connectable="0" parent="HSqlkstyHyvW9irIFNGg-12">
          <mxGeometry x="-0.1663" y="-1" relative="1" as="geometry">
            <mxPoint x="-5" y="-11" as="offset" />
          </mxGeometry>
        </mxCell>
        <mxCell id="HSqlkstyHyvW9irIFNGg-20" value="" style="endArrow=classic;html=1;rounded=0;exitX=1;exitY=0.5;exitDx=0;exitDy=0;entryX=0.5;entryY=0;entryDx=0;entryDy=0;" edge="1" parent="WIyWlLk6GJQsqaUBKTNV-1" source="HSqlkstyHyvW9irIFNGg-7" target="HSqlkstyHyvW9irIFNGg-6">
          <mxGeometry width="50" height="50" relative="1" as="geometry">
            <mxPoint x="1134.47" y="660" as="sourcePoint" />
            <mxPoint x="1134.47" y="790" as="targetPoint" />
            <Array as="points">
              <mxPoint x="1132" y="740" />
            </Array>
          </mxGeometry>
        </mxCell>
        <mxCell id="HSqlkstyHyvW9irIFNGg-37" value="Nie" style="edgeLabel;html=1;align=center;verticalAlign=middle;resizable=0;points=[];" vertex="1" connectable="0" parent="HSqlkstyHyvW9irIFNGg-20">
          <mxGeometry x="-0.4421" y="-1" relative="1" as="geometry">
            <mxPoint y="-11" as="offset" />
          </mxGeometry>
        </mxCell>
        <mxCell id="HSqlkstyHyvW9irIFNGg-21" value="" style="endArrow=classic;html=1;rounded=0;exitX=0;exitY=0.5;exitDx=0;exitDy=0;" edge="1" parent="WIyWlLk6GJQsqaUBKTNV-1" source="HSqlkstyHyvW9irIFNGg-7">
          <mxGeometry width="50" height="50" relative="1" as="geometry">
            <mxPoint x="814.47" y="830" as="sourcePoint" />
            <mxPoint x="1132" y="880" as="targetPoint" />
            <Array as="points">
              <mxPoint x="814.47" y="740" />
              <mxPoint x="814.47" y="880" />
            </Array>
          </mxGeometry>
        </mxCell>
        <mxCell id="HSqlkstyHyvW9irIFNGg-35" value="Tak" style="edgeLabel;html=1;align=center;verticalAlign=middle;resizable=0;points=[];" vertex="1" connectable="0" parent="HSqlkstyHyvW9irIFNGg-21">
          <mxGeometry x="-0.8631" y="-1" relative="1" as="geometry">
            <mxPoint x="-5" y="-9" as="offset" />
          </mxGeometry>
        </mxCell>
        <mxCell id="HSqlkstyHyvW9irIFNGg-24" value="Czy wystąpiło przerwanie?" style="rhombus;whiteSpace=wrap;html=1;" vertex="1" parent="WIyWlLk6GJQsqaUBKTNV-1">
          <mxGeometry x="552" y="420" width="140" height="140" as="geometry" />
        </mxCell>
        <mxCell id="HSqlkstyHyvW9irIFNGg-25" value="Wyłączenie panelu LED, wyłączenie wykonywania pomiarów" style="rounded=0;whiteSpace=wrap;html=1;" vertex="1" parent="WIyWlLk6GJQsqaUBKTNV-1">
          <mxGeometry x="390" y="530" width="120" height="60" as="geometry" />
        </mxCell>
        <mxCell id="HSqlkstyHyvW9irIFNGg-28" value="" style="endArrow=classic;html=1;rounded=0;exitX=0;exitY=0.5;exitDx=0;exitDy=0;entryX=0.5;entryY=0;entryDx=0;entryDy=0;" edge="1" parent="WIyWlLk6GJQsqaUBKTNV-1" source="HSqlkstyHyvW9irIFNGg-24" target="HSqlkstyHyvW9irIFNGg-25">
          <mxGeometry width="50" height="50" relative="1" as="geometry">
            <mxPoint x="412" y="430" as="sourcePoint" />
            <mxPoint x="462" y="380" as="targetPoint" />
            <Array as="points">
              <mxPoint x="450" y="490" />
            </Array>
          </mxGeometry>
        </mxCell>
        <mxCell id="HSqlkstyHyvW9irIFNGg-29" value="Tak" style="edgeLabel;html=1;align=center;verticalAlign=middle;resizable=0;points=[];" vertex="1" connectable="0" parent="HSqlkstyHyvW9irIFNGg-28">
          <mxGeometry x="-0.1455" y="1" relative="1" as="geometry">
            <mxPoint y="-11" as="offset" />
          </mxGeometry>
        </mxCell>
        <mxCell id="HSqlkstyHyvW9irIFNGg-30" value="" style="endArrow=classic;html=1;rounded=0;exitX=0.5;exitY=1;exitDx=0;exitDy=0;entryX=0.5;entryY=0;entryDx=0;entryDy=0;" edge="1" parent="WIyWlLk6GJQsqaUBKTNV-1" source="HSqlkstyHyvW9irIFNGg-25" target="HSqlkstyHyvW9irIFNGg-1">
          <mxGeometry width="50" height="50" relative="1" as="geometry">
            <mxPoint x="312" y="630" as="sourcePoint" />
            <mxPoint x="362" y="580" as="targetPoint" />
          </mxGeometry>
        </mxCell>
        <mxCell id="HSqlkstyHyvW9irIFNGg-31" value="" style="endArrow=classic;html=1;rounded=0;exitX=1;exitY=0.5;exitDx=0;exitDy=0;entryX=0.5;entryY=0;entryDx=0;entryDy=0;" edge="1" parent="WIyWlLk6GJQsqaUBKTNV-1" source="HSqlkstyHyvW9irIFNGg-24" target="HSqlkstyHyvW9irIFNGg-5">
          <mxGeometry width="50" height="50" relative="1" as="geometry">
            <mxPoint x="722" y="500" as="sourcePoint" />
            <mxPoint x="772" y="450" as="targetPoint" />
            <Array as="points">
              <mxPoint x="744" y="490" />
            </Array>
          </mxGeometry>
        </mxCell>
        <mxCell id="HSqlkstyHyvW9irIFNGg-32" value="Nie" style="edgeLabel;html=1;align=center;verticalAlign=middle;resizable=0;points=[];" vertex="1" connectable="0" parent="HSqlkstyHyvW9irIFNGg-31">
          <mxGeometry x="-0.2573" relative="1" as="geometry">
            <mxPoint y="-10" as="offset" />
          </mxGeometry>
        </mxCell>
        <mxCell id="HSqlkstyHyvW9irIFNGg-33" value="" style="endArrow=classic;html=1;rounded=0;exitX=0.5;exitY=1;exitDx=0;exitDy=0;entryX=0.5;entryY=0;entryDx=0;entryDy=0;" edge="1" parent="WIyWlLk6GJQsqaUBKTNV-1" source="HSqlkstyHyvW9irIFNGg-3" target="HSqlkstyHyvW9irIFNGg-24">
          <mxGeometry width="50" height="50" relative="1" as="geometry">
            <mxPoint x="702" y="410" as="sourcePoint" />
            <mxPoint x="752" y="360" as="targetPoint" />
          </mxGeometry>
        </mxCell>
        <mxCell id="HSqlkstyHyvW9irIFNGg-34" value="" style="endArrow=classic;html=1;rounded=0;exitX=0.5;exitY=1;exitDx=0;exitDy=0;entryX=1;entryY=0.5;entryDx=0;entryDy=0;" edge="1" parent="WIyWlLk6GJQsqaUBKTNV-1" source="HSqlkstyHyvW9irIFNGg-6" target="HSqlkstyHyvW9irIFNGg-3">
          <mxGeometry width="50" height="50" relative="1" as="geometry">
            <mxPoint x="1132" y="870" as="sourcePoint" />
            <mxPoint x="752" y="350" as="targetPoint" />
            <Array as="points">
              <mxPoint x="1132" y="880" />
              <mxPoint x="1142" y="880" />
              <mxPoint x="1232" y="880" />
              <mxPoint x="1232" y="360" />
            </Array>
          </mxGeometry>
        </mxCell>
        <mxCell id="HSqlkstyHyvW9irIFNGg-39" value="Świecenie panelem LED zgodnie z konfiguracją" style="rounded=0;whiteSpace=wrap;html=1;" vertex="1" parent="WIyWlLk6GJQsqaUBKTNV-1">
          <mxGeometry x="550" y="660" width="120" height="60" as="geometry" />
        </mxCell>
        <mxCell id="HSqlkstyHyvW9irIFNGg-40" value="&lt;div&gt;Wykonanie pomiarów:&lt;/div&gt;&lt;div&gt;- temperatura i wilgotność (STH35)&lt;/div&gt;&lt;div&gt;- skład gleby (NPK)&lt;/div&gt;&lt;div&gt;- stężenie CO2 (SCD41)&lt;/div&gt;&lt;div&gt;- padające światło (AS734)&lt;/div&gt;&lt;div&gt;&lt;br&gt;        &lt;/div&gt;" style="rounded=0;whiteSpace=wrap;html=1;" vertex="1" parent="WIyWlLk6GJQsqaUBKTNV-1">
          <mxGeometry x="510" y="750" width="200" height="100" as="geometry" />
        </mxCell>
        <mxCell id="HSqlkstyHyvW9irIFNGg-41" value="&lt;div&gt;Czy wilgotność&amp;nbsp;&lt;/div&gt;&lt;div&gt;gleby jest mniejsza od minimalnej&amp;nbsp;&lt;/div&gt;&lt;div&gt;dozwolonej?&lt;/div&gt;" style="rhombus;whiteSpace=wrap;html=1;" vertex="1" parent="WIyWlLk6GJQsqaUBKTNV-1">
          <mxGeometry x="534.44" y="870" width="151.11" height="160" as="geometry" />
        </mxCell>
        <mxCell id="HSqlkstyHyvW9irIFNGg-42" value="" style="endArrow=classic;html=1;rounded=0;exitX=0;exitY=0.5;exitDx=0;exitDy=0;entryX=0.5;entryY=0;entryDx=0;entryDy=0;" edge="1" parent="WIyWlLk6GJQsqaUBKTNV-1" source="HSqlkstyHyvW9irIFNGg-5" target="HSqlkstyHyvW9irIFNGg-39">
          <mxGeometry width="50" height="50" relative="1" as="geometry">
            <mxPoint x="430" y="820" as="sourcePoint" />
            <mxPoint x="480" y="770" as="targetPoint" />
            <Array as="points">
              <mxPoint x="610" y="630" />
            </Array>
          </mxGeometry>
        </mxCell>
        <mxCell id="HSqlkstyHyvW9irIFNGg-43" value="" style="endArrow=classic;html=1;rounded=0;exitX=0.5;exitY=1;exitDx=0;exitDy=0;entryX=0.5;entryY=0;entryDx=0;entryDy=0;" edge="1" parent="WIyWlLk6GJQsqaUBKTNV-1" source="HSqlkstyHyvW9irIFNGg-39" target="HSqlkstyHyvW9irIFNGg-40">
          <mxGeometry width="50" height="50" relative="1" as="geometry">
            <mxPoint x="470" y="770" as="sourcePoint" />
            <mxPoint x="520" y="720" as="targetPoint" />
          </mxGeometry>
        </mxCell>
        <mxCell id="HSqlkstyHyvW9irIFNGg-44" value="" style="endArrow=classic;html=1;rounded=0;entryX=0.5;entryY=0;entryDx=0;entryDy=0;exitX=0.5;exitY=1;exitDx=0;exitDy=0;" edge="1" parent="WIyWlLk6GJQsqaUBKTNV-1" source="HSqlkstyHyvW9irIFNGg-40" target="HSqlkstyHyvW9irIFNGg-41">
          <mxGeometry width="50" height="50" relative="1" as="geometry">
            <mxPoint x="470" y="920" as="sourcePoint" />
            <mxPoint x="520" y="870" as="targetPoint" />
          </mxGeometry>
        </mxCell>
        <mxCell id="HSqlkstyHyvW9irIFNGg-45" value="Zapisanie pomiarów do pliku Excel" style="rounded=0;whiteSpace=wrap;html=1;" vertex="1" parent="WIyWlLk6GJQsqaUBKTNV-1">
          <mxGeometry x="692" y="1040" width="120" height="60" as="geometry" />
        </mxCell>
        <mxCell id="HSqlkstyHyvW9irIFNGg-46" value="Odczekanie interwału 3600 sekund" style="rounded=0;whiteSpace=wrap;html=1;" vertex="1" parent="WIyWlLk6GJQsqaUBKTNV-1">
          <mxGeometry x="914.47" y="1040" width="120" height="60" as="geometry" />
        </mxCell>
        <mxCell id="HSqlkstyHyvW9irIFNGg-47" value="Włączenie pompy wody na określony czas" style="rounded=0;whiteSpace=wrap;html=1;" vertex="1" parent="WIyWlLk6GJQsqaUBKTNV-1">
          <mxGeometry x="380" y="1040" width="120" height="60" as="geometry" />
        </mxCell>
        <mxCell id="HSqlkstyHyvW9irIFNGg-48" value="" style="endArrow=classic;html=1;rounded=0;exitX=0;exitY=0.5;exitDx=0;exitDy=0;entryX=0.5;entryY=0;entryDx=0;entryDy=0;" edge="1" parent="WIyWlLk6GJQsqaUBKTNV-1" source="HSqlkstyHyvW9irIFNGg-41" target="HSqlkstyHyvW9irIFNGg-47">
          <mxGeometry width="50" height="50" relative="1" as="geometry">
            <mxPoint x="470" y="930" as="sourcePoint" />
            <mxPoint x="520" y="880" as="targetPoint" />
            <Array as="points">
              <mxPoint x="440" y="950" />
            </Array>
          </mxGeometry>
        </mxCell>
        <mxCell id="HSqlkstyHyvW9irIFNGg-49" value="Tak" style="edgeLabel;html=1;align=center;verticalAlign=middle;resizable=0;points=[];" vertex="1" connectable="0" parent="HSqlkstyHyvW9irIFNGg-48">
          <mxGeometry x="-0.3906" relative="1" as="geometry">
            <mxPoint x="4" y="-10" as="offset" />
          </mxGeometry>
        </mxCell>
        <mxCell id="HSqlkstyHyvW9irIFNGg-50" value="" style="endArrow=classic;html=1;rounded=0;exitX=1;exitY=0.5;exitDx=0;exitDy=0;entryX=0.5;entryY=0;entryDx=0;entryDy=0;" edge="1" parent="WIyWlLk6GJQsqaUBKTNV-1" source="HSqlkstyHyvW9irIFNGg-41" target="HSqlkstyHyvW9irIFNGg-45">
          <mxGeometry width="50" height="50" relative="1" as="geometry">
            <mxPoint x="770" y="970" as="sourcePoint" />
            <mxPoint x="820" y="920" as="targetPoint" />
            <Array as="points">
              <mxPoint x="752" y="950" />
            </Array>
          </mxGeometry>
        </mxCell>
        <mxCell id="HSqlkstyHyvW9irIFNGg-51" value="Nie" style="edgeLabel;html=1;align=center;verticalAlign=middle;resizable=0;points=[];" vertex="1" connectable="0" parent="HSqlkstyHyvW9irIFNGg-50">
          <mxGeometry x="-0.4275" y="1" relative="1" as="geometry">
            <mxPoint y="-9" as="offset" />
          </mxGeometry>
        </mxCell>
        <mxCell id="HSqlkstyHyvW9irIFNGg-52" value="" style="endArrow=classic;html=1;rounded=0;exitX=1;exitY=0.5;exitDx=0;exitDy=0;entryX=0;entryY=0.5;entryDx=0;entryDy=0;" edge="1" parent="WIyWlLk6GJQsqaUBKTNV-1" source="HSqlkstyHyvW9irIFNGg-47" target="HSqlkstyHyvW9irIFNGg-45">
          <mxGeometry width="50" height="50" relative="1" as="geometry">
            <mxPoint x="590" y="1110" as="sourcePoint" />
            <mxPoint x="640" y="1060" as="targetPoint" />
          </mxGeometry>
        </mxCell>
        <mxCell id="HSqlkstyHyvW9irIFNGg-53" value="" style="endArrow=classic;html=1;rounded=0;exitX=1;exitY=0.5;exitDx=0;exitDy=0;entryX=0;entryY=0.5;entryDx=0;entryDy=0;" edge="1" parent="WIyWlLk6GJQsqaUBKTNV-1" source="HSqlkstyHyvW9irIFNGg-45" target="HSqlkstyHyvW9irIFNGg-46">
          <mxGeometry width="50" height="50" relative="1" as="geometry">
            <mxPoint x="830" y="1020" as="sourcePoint" />
            <mxPoint x="880" y="970" as="targetPoint" />
          </mxGeometry>
        </mxCell>
        <mxCell id="HSqlkstyHyvW9irIFNGg-54" value="" style="endArrow=classic;html=1;rounded=0;exitX=1;exitY=0.5;exitDx=0;exitDy=0;" edge="1" parent="WIyWlLk6GJQsqaUBKTNV-1" source="HSqlkstyHyvW9irIFNGg-46">
          <mxGeometry width="50" height="50" relative="1" as="geometry">
            <mxPoint x="1150" y="1030" as="sourcePoint" />
            <mxPoint x="1230" y="880" as="targetPoint" />
            <Array as="points">
              <mxPoint x="1230" y="1070" />
            </Array>
          </mxGeometry>
        </mxCell>
      </root>
    </mxGraphModel>
  </diagram>
</mxfile>
